<?xml version="1.0" encoding="UTF-8" standalone="no"?>
<svg
   xmlns:dc="http://purl.org/dc/elements/1.1/"
   xmlns:cc="http://creativecommons.org/ns#"
   xmlns:rdf="http://www.w3.org/1999/02/22-rdf-syntax-ns#"
   xmlns:svg="http://www.w3.org/2000/svg"
   xmlns="http://www.w3.org/2000/svg"
   xmlns:sodipodi="http://sodipodi.sourceforge.net/DTD/sodipodi-0.dtd"
   xmlns:inkscape="http://www.inkscape.org/namespaces/inkscape"
   inkscape:export-ydpi="96"
   inkscape:export-xdpi="96"
   inkscape:export-filename="/Users/pedrozopayares/Documents/Development/link/src/favicon.png"
   width="90"
   height="90"
   viewBox="0 0 23.812499 23.812501"
   version="1.1"
   id="svg8"
   inkscape:version="1.0 (4035a4f, 2020-05-01)"
   sodipodi:docname="logo-link.svg">
  <defs
     id="defs2">
    <clipPath
       id="clipPath4169"
       clipPathUnits="userSpaceOnUse">
      <path
         id="path4171"
         d="M 0,77.414 H 200 V 0 H 0 Z" />
    </clipPath>
  </defs>
  <sodipodi:namedview
     units="px"
     id="base"
     pagecolor="#ffffff"
     bordercolor="#666666"
     borderopacity="1.0"
     inkscape:pageopacity="0.0"
     inkscape:pageshadow="2"
     inkscape:zoom="0.58325294"
     inkscape:cx="-115.60338"
     inkscape:cy="172.41979"
     inkscape:document-units="mm"
     inkscape:current-layer="layer1"
     inkscape:document-rotation="0"
     showgrid="false"
     showguides="false"
     inkscape:window-width="1251"
     inkscape:window-height="755"
     inkscape:window-x="343"
     inkscape:window-y="1103"
     inkscape:window-maximized="0" />
  <metadata
     id="metadata5">
    <rdf:RDF>
      <cc:Work
         rdf:about="">
        <dc:format>image/svg+xml</dc:format>
        <dc:type
           rdf:resource="http://purl.org/dc/dcmitype/StillImage" />
        <dc:title></dc:title>
      </cc:Work>
    </rdf:RDF>
  </metadata>
  <g
     inkscape:label="Capa 1"
     inkscape:groupmode="layer"
     id="layer1">
    <rect
       y="0"
       x="0"
       height="23.8125"
       width="23.8125"
       id="rect1090"
       style="fill:#3f51b5;fill-opacity:1;stroke:none;stroke-width:4.99999" />
    <g
       transform="matrix(1.6255123,0,0,1.6255123,-16.865951,-13.504816)"
       style="font-style:normal;font-variant:normal;font-weight:900;font-stretch:normal;font-size:41.6793px;line-height:1.25;font-family:Roboto;-inkscape-font-specification:'Roboto, Heavy';font-variant-ligatures:normal;font-variant-caps:normal;font-variant-numeric:normal;font-variant-east-asian:normal;fill:#3f51b5;fill-opacity:1;stroke:none;stroke-width:1.04198"
       id="text965"
       aria-label="Link">
      <path
         sodipodi:nodetypes="ccccccccccccc"
         id="path988"
         style="font-style:italic;font-variant:normal;font-weight:900;font-stretch:normal;font-size:41.6793px;font-family:Roboto;-inkscape-font-specification:'Roboto, Heavy Italic';font-variant-ligatures:normal;font-variant-caps:normal;font-variant-numeric:normal;font-variant-east-asian:normal;fill:#ffffff;fill-opacity:1;stroke-width:0.315603"
         d="m 20.483246,20.61154 -0.739697,0.641069 -0.314371,1.818421 h -2.028003 l 1.645826,-9.474282 h 2.028003 l -0.93695,5.054595 c 0.662041,-0.78013 1.387645,-1.505651 2.089645,-2.249913 h 2.570444 l -2.835504,2.835504 1.719794,3.834096 h -2.225254 z" />
    </g>
    <path
       sodipodi:nodetypes="cccc"
       id="path969"
       d="m 17.391727,8.5968651 c -0.170925,0.2983102 -0.874596,0.6541147 -3.296544,0 C 15.862428,-0.78079474 2.2416794,6.4917607 -2.5423444,18.509994 2.8871948,1.6456213 19.466297,-1.7800116 17.391727,8.5968651 Z"
       style="fill:#ffffff;fill-opacity:1;stroke:none;stroke-width:0.0517347px;stroke-linecap:butt;stroke-linejoin:miter;stroke-opacity:1" />
    <g
       transform="translate(0.32076764,58.37971)"
       aria-label="Link"
       id="g1086"
       style="font-style:normal;font-variant:normal;font-weight:900;font-stretch:normal;font-size:41.6793px;line-height:1.25;font-family:Roboto;-inkscape-font-specification:'Roboto, Heavy';font-variant-ligatures:normal;font-variant-caps:normal;font-variant-numeric:normal;font-variant-east-asian:normal;fill:#3f51b5;fill-opacity:1;stroke:none;stroke-width:1.04198">
      <path
         d="m 32.027652,21.255711 h 6.116549 l -0.484786,2.784938 H 28.015279 L 30.614554,9.0226187 h 3.537902 z"
         style="font-style:italic;font-variant:normal;font-weight:900;font-stretch:normal;font-size:41.6793px;font-family:Roboto;-inkscape-font-specification:'Roboto, Heavy Italic';font-variant-ligatures:normal;font-variant-caps:normal;font-variant-numeric:normal;font-variant-east-asian:normal;fill:#3f51b5;fill-opacity:1;stroke-width:0.528105"
         id="path1076" />
      <path
         d="M 42.661989,24.040649 H 39.258176 L 41.197318,12.88027 h 3.403813 z M 41.496441,10.06439 q -0.02063,-0.7529651 0.526044,-1.2583798 0.556987,-0.5054148 1.340895,-0.5054148 0.794223,0 1.320267,0.4538399 0.536359,0.4538449 0.556988,1.186177 0.02063,0.7632787 -0.526044,1.2686937 -0.546673,0.4951 -1.340896,0.4951 -0.773594,0 -1.320267,-0.443525 -0.536358,-0.45384 -0.556987,-1.196491 z"
         style="font-style:italic;font-variant:normal;font-weight:900;font-stretch:normal;font-size:41.6793px;font-family:Roboto;-inkscape-font-specification:'Roboto, Heavy Italic';font-variant-ligatures:normal;font-variant-caps:normal;font-variant-numeric:normal;font-variant-east-asian:normal;fill:#3f51b5;fill-opacity:1;stroke-width:0.528105"
         id="path1078" />
      <path
         d="m 49.851253,12.869956 -0.237235,1.340896 q 1.340896,-1.588447 3.228464,-1.547186 1.547188,0.03092 2.300153,1.15523 0.763279,1.113974 0.556987,3.197522 l -1.175862,7.024231 h -3.403813 l 1.186177,-7.044859 q 0.04126,-0.361009 0.02063,-0.660134 -0.0722,-0.979888 -1.155233,-0.979888 -0.897369,-0.02063 -1.640019,0.794226 l -1.392469,7.890655 H 44.745535 L 46.684677,12.88027 Z"
         style="font-style:italic;font-variant:normal;font-weight:900;font-stretch:normal;font-size:41.6793px;font-family:Roboto;-inkscape-font-specification:'Roboto, Heavy Italic';font-variant-ligatures:normal;font-variant-caps:normal;font-variant-numeric:normal;font-variant-east-asian:normal;fill:#3f51b5;fill-opacity:1;stroke-width:0.528105"
         id="path1080" />
      <path
         d="m 61.671767,19.925134 -1.23775,1.072713 -0.526044,3.042802 H 56.514475 L 59.268469,8.1871368 h 3.393499 L 61.09415,16.645095 c 1.107808,-1.305408 2.321975,-2.519436 3.496647,-3.764825 h 4.301177 l -4.744708,4.744707 2.877768,6.415672 H 63.30147 Z"
         style="font-style:italic;font-variant:normal;font-weight:900;font-stretch:normal;font-size:41.6793px;font-family:Roboto;-inkscape-font-specification:'Roboto, Heavy Italic';font-variant-ligatures:normal;font-variant-caps:normal;font-variant-numeric:normal;font-variant-east-asian:normal;fill:#3f51b5;fill-opacity:1;stroke-width:0.528105"
         id="path1082"
         sodipodi:nodetypes="ccccccccccccc" />
      <path
         id="path1084"
         style="font-style:italic;font-variant:normal;font-weight:900;font-stretch:normal;font-size:41.6793px;font-family:Roboto;-inkscape-font-specification:'Roboto, Heavy Italic';font-variant-ligatures:normal;font-variant-caps:normal;font-variant-numeric:normal;font-variant-east-asian:normal;fill:#3f51b5;fill-opacity:1;stroke-width:0.528105"
         d="M 42.661989,24.040649 H 39.258176 L 41.197318,12.88027 h 3.403813 z M 41.496441,10.06439 q -0.02063,-0.7529651 0.526044,-1.2583798 0.556987,-0.5054148 1.340895,-0.5054148 0.794223,0 1.320267,0.4538399 0.536359,0.4538449 0.556988,1.186177 0.02063,0.7632787 -0.526044,1.2686937 -0.546673,0.4951 -1.340896,0.4951 -0.773594,0 -1.320267,-0.443525 -0.536358,-0.45384 -0.556987,-1.196491 z" />
    </g>
    <path
       style="fill:#3f51b5;fill-opacity:1;stroke:none;stroke-width:0.134098px;stroke-linecap:butt;stroke-linejoin:miter;stroke-opacity:1"
       d="m 30.575834,66.559777 v 0 c 7.482258,-6.882233 30.859673,-11.313189 29.007255,0.0446 1.008377,0.03832 2.125937,0.05424 3.391523,0.01891 C 64.88638,55.508437 41.092463,56.6624 30.575834,66.559757 Z"
       id="path1088"
       sodipodi:nodetypes="cccccc" />
  </g>
</svg>
