<?xml version="1.0" encoding="UTF-8" standalone="no"?>
<svg
   xmlns:dc="http://purl.org/dc/elements/1.1/"
   xmlns:cc="http://creativecommons.org/ns#"
   xmlns:rdf="http://www.w3.org/1999/02/22-rdf-syntax-ns#"
   xmlns:svg="http://www.w3.org/2000/svg"
   xmlns="http://www.w3.org/2000/svg"
   xmlns:sodipodi="http://sodipodi.sourceforge.net/DTD/sodipodi-0.dtd"
   xmlns:inkscape="http://www.inkscape.org/namespaces/inkscape"
   width="210mm"
   height="297mm"
   viewBox="0 0 210 297"
   version="1.1"
   id="svg8"
   inkscape:version="1.0 (4035a4f, 2020-05-01)"
   sodipodi:docname="logo-link.svg">
  <defs
     id="defs2">
    <clipPath
       id="clipPath4169"
       clipPathUnits="userSpaceOnUse">
      <path
         id="path4171"
         d="M 0,77.414 H 200 V 0 H 0 Z" />
    </clipPath>
  </defs>
  <sodipodi:namedview
     id="base"
     pagecolor="#ffffff"
     bordercolor="#666666"
     borderopacity="1.0"
     inkscape:pageopacity="0.0"
     inkscape:pageshadow="2"
     inkscape:zoom="0.20621106"
     inkscape:cx="-147.5915"
     inkscape:cy="271.77656"
     inkscape:document-units="mm"
     inkscape:current-layer="layer1"
     inkscape:document-rotation="0"
     showgrid="false"
     showguides="false"
     inkscape:window-width="1251"
     inkscape:window-height="755"
     inkscape:window-x="343"
     inkscape:window-y="1103"
     inkscape:window-maximized="0" />
  <metadata
     id="metadata5">
    <rdf:RDF>
      <cc:Work
         rdf:about="">
        <dc:format>image/svg+xml</dc:format>
        <dc:type
           rdf:resource="http://purl.org/dc/dcmitype/StillImage" />
        <dc:title></dc:title>
      </cc:Work>
    </rdf:RDF>
  </metadata>
  <g
     inkscape:label="Capa 1"
     inkscape:groupmode="layer"
     id="layer1">
    <g
       style="font-style:normal;font-variant:normal;font-weight:900;font-stretch:normal;font-size:41.67929999999999779px;line-height:1.25;font-family:Roboto;-inkscape-font-specification:'Roboto, Heavy';font-variant-ligatures:normal;font-variant-caps:normal;font-variant-numeric:normal;font-variant-east-asian:normal;fill:#3f51b5;fill-opacity:1;stroke:none;stroke-width:1.04198"
       id="text965"
       aria-label="Link">
      <path
         id="path982"
         style="font-style:italic;font-variant:normal;font-weight:900;font-stretch:normal;font-size:41.67929999999999779px;font-family:Roboto;-inkscape-font-specification:'Roboto, Heavy Italic';font-variant-ligatures:normal;font-variant-caps:normal;font-variant-numeric:normal;font-variant-east-asian:normal;fill:#3f51b5;fill-opacity:1;stroke-width:1.04198"
         d="m 39.696133,208.436 h 12.068273 l -0.956507,5.49483 H 31.779508 l 5.128508,-29.63137 h 6.980468 z" />
      <path
         id="path984"
         style="font-style:italic;font-variant:normal;font-weight:900;font-stretch:normal;font-size:41.67929999999999779px;font-family:Roboto;-inkscape-font-specification:'Roboto, Heavy Italic';font-variant-ligatures:normal;font-variant-caps:normal;font-variant-numeric:normal;font-variant-east-asian:normal;fill:#3f51b5;fill-opacity:1;stroke-width:1.04198"
         d="m 60.678241,213.93083 h -6.715902 l 3.826029,-22.02002 h 6.715903 z m -2.299688,-27.5759 q -0.0407,-1.48564 1.037913,-2.48285 1.098965,-0.99721 2.645658,-0.99721 1.567044,0 2.604956,0.89545 1.058264,0.89546 1.098966,2.34039 0.0407,1.50599 -1.037912,2.5032 -1.078615,0.97686 -2.645659,0.97686 -1.526341,0 -2.604956,-0.8751 -1.058263,-0.89545 -1.098966,-2.36074 z" />
      <path
         id="path986"
         style="font-style:italic;font-variant:normal;font-weight:900;font-stretch:normal;font-size:41.67929999999999779px;font-family:Roboto;-inkscape-font-specification:'Roboto, Heavy Italic';font-variant-ligatures:normal;font-variant-caps:normal;font-variant-numeric:normal;font-variant-east-asian:normal;fill:#3f51b5;fill-opacity:1;stroke-width:1.04198"
         d="m 74.86304,191.89046 -0.468078,2.64566 q 2.645659,-3.13409 6.369932,-3.05268 3.052683,0.061 4.538322,2.27933 1.50599,2.19793 1.098966,6.30888 l -2.320039,13.85918 H 77.36624 l 2.340391,-13.89988 q 0.08141,-0.71229 0.0407,-1.30248 -0.142458,-1.93337 -2.279337,-1.93337 -1.770556,-0.0407 -3.235843,1.56705 l -2.747415,15.56868 h -6.695552 l 3.82603,-22.02002 z" />
      <path
         sodipodi:nodetypes="ccccccccccccc"
         id="path988"
         style="font-style:italic;font-variant:normal;font-weight:900;font-stretch:normal;font-size:41.67929999999999779px;font-family:Roboto;-inkscape-font-specification:'Roboto, Heavy Italic';font-variant-ligatures:normal;font-variant-caps:normal;font-variant-numeric:normal;font-variant-east-asian:normal;fill:#3f51b5;fill-opacity:1;stroke-width:1.04198"
         d="m 98.18554,205.8107 -2.442147,2.11652 -1.037912,6.00361 H 88.00993 l 5.433776,-31.27982 h 6.695554 l -3.093389,16.688 c 2.185764,-2.57564 4.581379,-4.97098 6.899069,-7.4282 h 8.48645 l -9.36156,9.36156 5.67799,12.65846 h -7.34679 z" />
    </g>
    <path
       id="path843"
       style="fill:#3f51b5;fill-opacity:1;stroke:none;stroke-width:0.0631874px;stroke-linecap:butt;stroke-linejoin:miter;stroke-opacity:1"
       d="m 50.484407,17.418194 c -0.04395,-6.27e-4 -0.08826,-4.86e-4 -0.13274,6.11e-4 -1.042425,0.02566 -2.261521,0.533813 -3.616874,1.269806 -1.975376,1.072651 -2.477602,4.127888 -0.784048,4.818893 0.857199,0.349755 1.805217,0.436339 2.871213,0.386528 4.884079,0.190108 8.101099,2.721719 5.419418,5.306503 a 7.7182984,7.7182984 0 0 0 -3.38447,6.386603 7.7182984,7.7182984 0 0 0 0.240044,1.909555 c 0.02547,0.462606 -0.236582,0.583905 -0.413935,0.621745 -3.429135,0.731965 -8.051787,3.800616 -9.547826,8.484511 l 0.0018,-0.001 c -0.129333,0.366666 -0.200545,0.760851 -0.200545,1.171804 0.72792,1.130737 2.150216,2.021749 2.150216,2.021749 0.306469,0.168078 2.05746,1.447718 2.376198,1.352863 1.454136,-0.432831 2.514536,-1.779878 2.514536,-3.374612 0,-0.271382 -0.03174,-0.535207 -0.08987,-0.788977 l 10e-4,5e-4 c -1.159308,-4.978646 2.21987,-8.489285 5.861749,-5.343892 -0.01794,-0.02311 -0.03301,-0.04652 -0.05005,-0.06961 a 7.7182984,7.7182984 0 0 0 4.874429,1.734193 7.7182984,7.7182984 0 0 0 7.660615,-6.776213 c 0.009,0.02955 0.01794,0.04865 0.01794,0.04865 l -0.01075,-0.09474 a 7.7182984,7.7182984 0 0 0 0.02601,-0.260272 c 0.08395,-0.137601 0.296549,-0.260925 0.79377,-0.252871 1.725393,0.02801 2.846333,-0.188761 3.626362,-0.702599 0.797861,-0.525581 -0.03337,-1.402109 -0.356282,-2.626966 0.228654,0.04988 0.468879,0.07656 0.71974,0.07656 l -0.760225,-1.583754 c -0.452018,-1.746054 -1.761592,-4.1021 -1.761592,-4.1021 -0.466547,0.597204 -0.74455,1.348815 -0.74455,2.165393 0,0.321059 0.03677,0.631764 0.105835,0.927328 0.49878,3.210628 -1.500237,4.416973 -2.084673,2.759867 l 4.85e-4,0.0041 a 7.7182984,7.7182984 0 0 0 -7.230878,-5.018571 7.7182984,7.7182984 0 0 0 -0.02673,0 7.7182984,7.7182984 0 0 0 -0.255705,0.0051 c -0.01075,-0.04436 -0.01973,-0.09168 -0.02368,-0.144939 -0.247651,-3.28271 -2.520007,-7.998746 -6.123014,-9.850548 l -0.07085,0.108885 C 51.610513,17.60184 51.077919,17.427789 50.485753,17.418531 Z m -0.167001,0.630641 c 0.05901,4.51e-4 0.116599,0.0036 0.173818,0.0071 0.01075,6.28e-4 0.02063,0.0012 0.03086,0.0018 0.05489,0.0036 0.109248,0.009 0.162518,0.01614 0.02439,0.0036 0.04861,0.0071 0.07265,0.01075 0.009,0.0012 0.01614,0.0018 0.02493,0.0036 0.03283,0.0054 0.06529,0.01255 0.09741,0.01902 0.01075,0.0018 0.0208,0.0054 0.03103,0.0071 0.02278,0.0054 0.04521,0.01075 0.06763,0.01614 0.01075,0.0018 0.02207,0.0054 0.03318,0.009 0.0217,0.0054 0.04305,0.01255 0.06421,0.01865 0.01075,0.0036 0.02242,0.0071 0.03337,0.01075 0.02224,0.0071 0.04431,0.01435 0.06601,0.02261 0.009,0.0036 0.01614,0.0054 0.02493,0.009 0.02978,0.01075 0.05938,0.02278 0.08826,0.03498 0.0071,0.0018 0.01255,0.0054 0.01992,0.009 0.02295,0.01075 0.04556,0.02027 0.0678,0.03103 0.009,0.0036 0.01883,0.009 0.02834,0.01435 0.01848,0.009 0.03696,0.01883 0.05507,0.02852 0.01075,0.0054 0.01938,0.01075 0.02906,0.01614 0.01883,0.01075 0.03749,0.02153 0.05579,0.03264 0.009,0.0054 0.01794,0.01075 0.02673,0.01614 0.02566,0.01614 0.05095,0.03264 0.07552,0.05005 0.03264,0.02278 0.06314,0.04646 0.09238,0.07014 0.796551,0.646357 0.400213,1.636063 -0.755401,2.638936 -0.452483,0.392678 -1.017815,0.727722 -1.597962,0.970154 v 1.25e-4 c -6.1e-4,2.51e-4 -10e-4,4.84e-4 -0.0018,6.27e-4 -0.218162,0.09112 -0.438241,0.168976 -0.655451,0.23165 -0.001,3.06e-4 -0.0018,6.28e-4 -0.0036,0.0012 -7.54e-4,2.15e-4 -0.0018,3.77e-4 -0.0018,6.1e-4 -0.143862,0.04143 -0.286325,0.07624 -0.426007,0.10386 -0.0036,6.28e-4 -0.0071,0.0012 -0.01075,0.0018 -0.06386,0.01255 -0.126822,0.02332 -0.189318,0.03264 -0.009,0.0012 -0.01614,0.0018 -0.02385,0.0036 -0.131484,0.01883 -0.259578,0.03086 -0.382831,0.03516 -0.02637,6.47e-4 -0.05237,0.0018 -0.07839,0.0018 -0.02099,1.97e-4 -0.04197,1.46e-4 -0.0626,-1.25e-4 -0.02727,-3.59e-4 -0.054,-0.0012 -0.08072,-0.0018 -0.01614,-6.26e-4 -0.03283,-0.0012 -0.04915,-0.0018 -0.02906,-0.0018 -0.05794,-0.0036 -0.08646,-0.0071 -0.01794,-0.0018 -0.03408,-0.0036 -0.05076,-0.0054 -0.02744,-0.0036 -0.05435,-0.0071 -0.08091,-0.01255 -0.01255,-0.0018 -0.02458,-0.0036 -0.03659,-0.0071 -0.0348,-0.0071 -0.06888,-0.01435 -0.102071,-0.02207 -3.24e-4,-7.4e-5 -6.28e-4,-1.62e-4 -0.001,-2.33e-4 -0.0036,-0.0012 -0.009,-0.0018 -0.01255,-0.0036 -0.03049,-0.0071 -0.06028,-0.01614 -0.08933,-0.02654 -0.009,-0.0036 -0.01848,-0.0071 -0.02744,-0.009 -0.03247,-0.01075 -0.06421,-0.0235 -0.09471,-0.03713 -6.81e-4,-3.08e-4 -10e-4,-6.29e-4 -0.0018,-0.0012 -0.02942,-0.01255 -0.05757,-0.02763 -0.08503,-0.0427 -0.009,-0.0036 -0.01614,-0.009 -0.02439,-0.01435 -0.02744,-0.01614 -0.05417,-0.03264 -0.07928,-0.05095 -2.15e-4,-1.44e-4 -3.95e-4,-3.23e-4 -6.1e-4,-4.84e-4 -0.02601,-0.01865 -0.05041,-0.03892 -0.0739,-0.05974 -0.009,-0.0071 -0.01614,-0.01435 -0.02439,-0.02242 -0.0054,-0.0054 -0.01075,-0.009 -0.01435,-0.01435 -0.01435,-0.01435 -0.02888,-0.02996 -0.04233,-0.04574 -0.06135,-0.07175 -0.112473,-0.151576 -0.153727,-0.237695 -1.8e-5,-3.6e-5 1.8e-5,-9e-5 0,-1.26e-4 -0.01435,-0.02869 -0.02654,-0.05813 -0.03803,-0.08826 0,-3.7e-5 1.8e-5,-8.9e-5 0,-1.27e-4 -0.02314,-0.06028 -0.0418,-0.123233 -0.05615,-0.188329 -1.8e-5,-3.7e-5 0,-9e-5 0,-1.27e-4 -0.06475,-0.293462 -0.04216,-0.632416 0.06063,-0.977919 0.02296,-0.07678 0.04969,-0.153906 0.08037,-0.230916 0.01614,-0.03838 0.03175,-0.07695 0.04897,-0.115337 1.7e-5,-3.6e-5 0,-9e-5 0,-1.25e-4 0.03462,-0.07678 0.07319,-0.15319 0.115337,-0.228815 1.8e-5,-3.6e-5 -1.9e-5,-9.1e-5 0,-1.27e-4 0.02099,-0.03785 0.04323,-0.07534 0.06619,-0.112824 1.9e-5,-3.6e-5 -1.7e-5,-9e-5 0,-1.26e-4 0.04592,-0.0748 0.09561,-0.148526 0.149064,-0.221031 1.9e-5,-1.7e-5 -1.7e-5,-1.06e-4 0,-1.26e-4 0.05346,-0.07247 0.110498,-0.143503 0.171129,-0.212761 0.21233,-0.242359 0.468699,-0.462278 0.765894,-0.641496 0.05579,-0.03354 0.111211,-0.06601 0.166643,-0.09758 0.01435,-0.009 0.02959,-0.01614 0.04448,-0.02475 0.04107,-0.02297 0.08216,-0.04575 0.123054,-0.06745 0.01794,-0.009 0.03516,-0.01848 0.05256,-0.02762 0.03659,-0.01919 0.073,-0.03785 0.109422,-0.05596 0.02081,-0.01075 0.04162,-0.0208 0.06243,-0.03103 0.03533,-0.01794 0.07068,-0.03391 0.105835,-0.05041 0.01794,-0.009 0.03552,-0.01614 0.0531,-0.02475 0.04986,-0.02261 0.09956,-0.04449 0.148884,-0.06548 0.0036,-0.0012 0.0071,-0.0036 0.01075,-0.0036 0.05417,-0.02295 0.107986,-0.04466 0.161621,-0.06548 0.01255,-0.0036 0.02439,-0.009 0.03659,-0.01435 0.04108,-0.01614 0.08198,-0.03067 0.122696,-0.04502 0.01614,-0.0054 0.03354,-0.01255 0.05041,-0.01794 0.03462,-0.01255 0.06906,-0.02314 0.103146,-0.03408 0.01865,-0.0054 0.03713,-0.01255 0.05579,-0.01794 0.03498,-0.01075 0.06995,-0.02099 0.104573,-0.03067 0.01614,-0.0036 0.03354,-0.009 0.05022,-0.01435 0.04018,-0.01075 0.08037,-0.02117 0.120184,-0.03086 0.009,-0.0018 0.01919,-0.0054 0.02869,-0.0071 0.05095,-0.01255 0.101709,-0.02314 0.151935,-0.03318 0.0054,-0.0012 0.01075,-0.0018 0.01614,-0.0036 0.04358,-0.009 0.08699,-0.01614 0.130049,-0.02332 0.01435,-0.0018 0.02852,-0.0036 0.0427,-0.0071 0.03391,-0.0054 0.06763,-0.01075 0.100984,-0.01435 0.01614,-0.0018 0.03247,-0.0036 0.04843,-0.0054 0.03247,-0.0036 0.06458,-0.0071 0.09651,-0.009 0.01435,-0.0012 0.03067,-0.0018 0.04592,-0.0036 0.03283,-0.0018 0.06548,-0.0036 0.09795,-0.0054 0.01435,-6.45e-4 0.02834,-0.0012 0.04233,-0.0018 0.04502,-0.0012 0.08969,-0.0018 0.133817,-0.0018 z m 9.35381,11.790475 a 4.7641396,5.369315 0 0 1 0.01902,0 4.7641396,5.369315 0 0 1 4.764111,5.369324 4.7641396,5.369315 0 0 1 -4.764111,5.369312 4.7641396,5.369315 0 0 1 -4.764217,-5.369312 4.7641396,5.369315 0 0 1 4.745203,-5.369324 z M 44.017667,45.651069 a 2.4499214,2.0451533 32.218239 0 1 2.111847,0.979142 2.4499214,2.0451533 32.218239 0 1 -0.14135,3.001656 2.4499214,2.0451533 32.218239 0 1 -3.309077,-0.62422 2.4499214,2.0451533 32.218239 0 1 0.141351,-3.001635 2.4499214,2.0451533 32.218239 0 1 1.197229,-0.354943 z" />
    <path
       style="color:#000000;font-style:normal;font-variant:normal;font-weight:normal;font-stretch:normal;font-size:medium;line-height:normal;font-family:sans-serif;font-variant-ligatures:normal;font-variant-position:normal;font-variant-caps:normal;font-variant-numeric:normal;font-variant-alternates:normal;font-variant-east-asian:normal;font-feature-settings:normal;font-variation-settings:normal;text-indent:0;text-align:start;text-decoration:none;text-decoration-line:none;text-decoration-style:solid;text-decoration-color:#000000;letter-spacing:normal;word-spacing:normal;text-transform:none;writing-mode:lr-tb;direction:ltr;text-orientation:mixed;dominant-baseline:auto;baseline-shift:baseline;text-anchor:start;white-space:normal;shape-padding:0;shape-margin:0;inline-size:0;clip-rule:nonzero;display:inline;overflow:visible;visibility:visible;opacity:1;isolation:auto;mix-blend-mode:normal;color-interpolation:sRGB;color-interpolation-filters:linearRGB;solid-color:#000000;solid-opacity:1;vector-effect:none;fill:#3f51b5;fill-opacity:1;fill-rule:nonzero;stroke:none;stroke-width:1.19409;stroke-linecap:butt;stroke-linejoin:miter;stroke-miterlimit:4;stroke-dasharray:none;stroke-dashoffset:0;stroke-opacity:1;color-rendering:auto;image-rendering:auto;shape-rendering:auto;text-rendering:auto;enable-background:accumulate;stop-color:#000000;stop-opacity:1"
       d="m 53.075214,16.927806 c -10.095793,0 -18.292447,8.197124 -18.292447,18.292899 0,10.095791 8.196654,18.292442 18.292447,18.292442 10.095777,0 18.292915,-8.196651 18.292915,-18.292442 0,-10.095775 -8.197138,-18.292899 -18.292915,-18.292899 z m 0,1.194092 c 9.450461,0 17.098824,7.648368 17.098824,17.098807 0,9.450434 -7.648363,17.098354 -17.098824,17.098354 -3.060941,0 -5.932782,-0.802328 -8.416894,-2.208344 -1.061978,0.06777 -2.201933,-0.904628 -2.777972,-1.960675 -3.617179,-3.133974 -5.90349,-7.762214 -5.90349,-12.929335 0,-7.330092 4.601054,-13.576035 11.075526,-16.009778 0.780693,-1.034605 3.432023,-1.792733 4.609574,-1.031593 0.46601,-0.03803 0.937346,-0.0574 1.413256,-0.0574 z"
       id="path907"
       sodipodi:nodetypes="ssssssssccsccs" />
    <text
       xml:space="preserve"
       style="font-style:normal;font-variant:normal;font-weight:normal;font-stretch:normal;font-size:36.3043px;line-height:1.25;font-family:'Arial Rounded MT Bold';-inkscape-font-specification:'Arial Rounded MT Bold, Normal';font-variant-ligatures:normal;font-variant-caps:normal;font-variant-numeric:normal;font-variant-east-asian:normal;fill:#3f51b5;fill-opacity:1;stroke:none;stroke-width:0.907606"
       x="77.101967"
       y="47.770084"
       id="text911"><tspan
         sodipodi:role="line"
         id="tspan909"
         x="77.101967"
         y="47.770084"
         style="font-style:normal;font-variant:normal;font-weight:normal;font-stretch:normal;font-size:36.3043px;font-family:'Arial Rounded MT Bold';-inkscape-font-specification:'Arial Rounded MT Bold, Normal';font-variant-ligatures:normal;font-variant-caps:normal;font-variant-numeric:normal;font-variant-east-asian:normal;fill:#3f51b5;fill-opacity:1;stroke-width:0.907606">Link</tspan></text>
    <text
       id="text923"
       y="128.15302"
       x="78.428574"
       style="font-style:normal;font-variant:normal;font-weight:bold;font-stretch:normal;font-size:41.6793px;line-height:1.25;font-family:Roboto;-inkscape-font-specification:'Roboto, Bold';font-variant-ligatures:normal;font-variant-caps:normal;font-variant-numeric:normal;font-variant-east-asian:normal;fill:#333333;fill-opacity:1;stroke:none;stroke-width:1.04198"
       xml:space="preserve"><tspan
         style="font-style:normal;font-variant:normal;font-weight:bold;font-stretch:normal;font-size:41.6793px;font-family:Roboto;-inkscape-font-specification:'Roboto, Bold';font-variant-ligatures:normal;font-variant-caps:normal;font-variant-numeric:normal;font-variant-east-asian:normal;fill:#333333;fill-opacity:1;stroke-width:1.04198"
         y="128.15302"
         x="78.428574"
         id="tspan921"
         sodipodi:role="line">Link</tspan></text>
    <g
       id="layer1-0"
       transform="matrix(1.2205897,0,0,1.2205897,27.202308,-1147.7963)">
      <path
         inkscape:export-ydpi="96"
         inkscape:export-xdpi="96"
         id="ellipse4701"
         d="M 33.1269,1034.7825 A 15.81844,15.818441 0 0 1 17.3084,1050.6009 15.81844,15.818441 0 0 1 1.49,1034.7825 15.81844,15.818441 0 0 1 17.3084,1018.964 15.81844,15.818441 0 0 1 33.1269,1034.7825 Z"
         style="opacity:1;fill:#3f51b5;fill-opacity:1;stroke:#768fff;stroke-width:0.683073;stroke-linecap:butt;stroke-linejoin:miter;stroke-miterlimit:4;stroke-dasharray:none;stroke-dashoffset:0;stroke-opacity:1" />
      <path
         inkscape:export-ydpi="96"
         inkscape:export-xdpi="96"
         sodipodi:nodetypes="cccccc"
         id="path867"
         d="m 31.651811,1041.4561 -5.929114,-1.7717 2.179777,-12.4626 -10.438779,-1.5918 0.06514,-6.5674 c 13.901245,0.6459 18.658106,12.5541 14.122973,22.3935 z"
         style="fill:#768fff;fill-opacity:1;stroke:none;stroke-width:0.359111px;stroke-linecap:butt;stroke-linejoin:miter;stroke-opacity:1" />
      <path
         inkscape:export-ydpi="96"
         inkscape:export-xdpi="96"
         style="fill:#3f51b5;fill-opacity:1;stroke:none;stroke-width:0.359111px;stroke-linecap:butt;stroke-linejoin:miter;stroke-opacity:1"
         d="m 3.275579,1041.4561 5.929114,-1.7717 -2.5201637,-11.7802 10.7791657,-2.2742 -0.06514,-6.5674 c -13.901245,0.6459 -18.658106,12.5541 -14.122973,22.3935 z"
         id="path877"
         sodipodi:nodetypes="ccccccc" />
      <path
         inkscape:export-ydpi="96"
         inkscape:export-xdpi="96"
         sodipodi:nodetypes="cccccc"
         id="path869"
         d="m 3.275579,1041.4561 6.2502652,-2.166 7.5207548,7.013 8.775448,-6.9652 5.829764,2.1182 c -6.223348,12.7769 -22.8402225,11.3208 -28.376232,0 z"
         style="fill:#ffffff;stroke:none;stroke-width:0.359111px;stroke-linecap:butt;stroke-linejoin:miter;stroke-opacity:1" />
      <path
         inkscape:export-ydpi="96"
         inkscape:export-xdpi="96"
         style="color:#000000;font-style:normal;font-variant:normal;font-weight:normal;font-stretch:normal;font-size:medium;line-height:normal;font-family:sans-serif;text-indent:0;text-align:start;text-decoration:none;text-decoration-line:none;text-decoration-style:solid;text-decoration-color:#000000;letter-spacing:normal;word-spacing:normal;text-transform:none;writing-mode:lr-tb;direction:ltr;baseline-shift:baseline;text-anchor:start;white-space:normal;clip-rule:nonzero;display:inline;overflow:visible;visibility:visible;opacity:1;isolation:auto;mix-blend-mode:normal;color-interpolation:sRGB;color-interpolation-filters:linearRGB;solid-color:#000000;solid-opacity:1;fill:#ffffff;fill-opacity:1;fill-rule:evenodd;stroke:none;stroke-width:2.68006;stroke-linecap:butt;stroke-linejoin:miter;stroke-miterlimit:4;stroke-dasharray:none;stroke-dashoffset:0;stroke-opacity:1;color-rendering:auto;image-rendering:auto;shape-rendering:auto;text-rendering:auto;enable-background:accumulate"
         d="m 25.990775,1039.2297 -8.944176,7.0734 0.995915,1.3811 8.217149,-8.1732 z"
         id="path4669" />
      <path
         inkscape:export-ydpi="96"
         inkscape:export-xdpi="96"
         sodipodi:nodetypes="ccccc"
         style="color:#000000;font-style:normal;font-variant:normal;font-weight:normal;font-stretch:normal;font-size:medium;line-height:normal;font-family:sans-serif;text-indent:0;text-align:start;text-decoration:none;text-decoration-line:none;text-decoration-style:solid;text-decoration-color:#000000;letter-spacing:normal;word-spacing:normal;text-transform:none;writing-mode:lr-tb;direction:ltr;baseline-shift:baseline;text-anchor:start;white-space:normal;clip-rule:nonzero;display:inline;overflow:visible;visibility:visible;opacity:1;isolation:auto;mix-blend-mode:normal;color-interpolation:sRGB;color-interpolation-filters:linearRGB;solid-color:#000000;solid-opacity:1;fill:#ffffff;fill-opacity:1;fill-rule:evenodd;stroke:none;stroke-width:2.68006;stroke-linecap:butt;stroke-linejoin:miter;stroke-miterlimit:4;stroke-dasharray:none;stroke-dashoffset:0;stroke-opacity:1;color-rendering:auto;image-rendering:auto;shape-rendering:auto;text-rendering:auto;enable-background:accumulate"
         d="m 25.990775,1039.2297 -0.268078,0.4547 5.794447,2.1533 c 0.370436,-0.2585 0.519906,-0.7541 0.711096,-1.0903 z"
         id="path4681" />
      <path
         sodipodi:nodetypes="ccccc"
         inkscape:export-ydpi="96"
         inkscape:export-xdpi="96"
         id="path863"
         d="m 6.6845293,1027.9042 10.8133677,3.4548 0.03094,15.3062 -8.4186617,-6.4186 z"
         style="fill:#768fff;fill-opacity:1;stroke:none;stroke-width:0.359111px;stroke-linecap:butt;stroke-linejoin:miter;stroke-opacity:1" />
      <path
         style="opacity:1;fill:none;fill-opacity:1;stroke:#768fff;stroke-width:0.683073;stroke-linecap:butt;stroke-linejoin:miter;stroke-miterlimit:4;stroke-dasharray:none;stroke-dashoffset:0;stroke-opacity:1"
         d="M 33.1269,1034.7825 A 15.81844,15.818441 0 0 1 17.3084,1050.6009 15.81844,15.818441 0 0 1 1.49,1034.7825 15.81844,15.818441 0 0 1 17.3084,1018.964 15.81844,15.818441 0 0 1 33.1269,1034.7825 Z"
         id="path861"
         inkscape:export-xdpi="96"
         inkscape:export-ydpi="96" />
      <path
         inkscape:export-ydpi="96"
         inkscape:export-xdpi="96"
         sodipodi:nodetypes="ccccc"
         id="path865"
         d="m 6.6845293,1027.9042 10.6671157,-2.3147 10.550829,1.6323 -10.404577,4.1372 z"
         style="fill:#ffffff;stroke:none;stroke-width:0.359111px;stroke-linecap:butt;stroke-linejoin:miter;stroke-opacity:1" />
      <path
         sodipodi:nodetypes="ccccc"
         style="fill:#3f51b5;fill-opacity:1;stroke:none;stroke-width:0.359111px;stroke-linecap:butt;stroke-linejoin:miter;stroke-opacity:1"
         d="m 27.902474,1027.2218 -10.404577,4.1372 0.03094,15.3062 8.35678,-6.4186 z"
         id="path871"
         inkscape:export-xdpi="96"
         inkscape:export-ydpi="96" />
    </g>
    <path
       sodipodi:nodetypes="cccccc"
       id="path969"
       d="m 36.198727,182.63706 v 0 c 14.76289,-13.57901 60.887768,-22.32152 57.232849,0.088 1.98958,0.0756 4.194586,0.10702 6.691654,0.0373 3.77202,-21.93018 -43.174638,-19.65335 -63.924503,-0.12534 z"
       style="fill:#3f51b5;fill-opacity:1;stroke:none;stroke-width:0.26458300000000001px;stroke-linecap:butt;stroke-linejoin:miter;stroke-opacity:1" />
  </g>
</svg>
