<?xml version="1.0" encoding="UTF-8" standalone="no"?>
<svg
   xmlns:dc="http://purl.org/dc/elements/1.1/"
   xmlns:cc="http://creativecommons.org/ns#"
   xmlns:rdf="http://www.w3.org/1999/02/22-rdf-syntax-ns#"
   xmlns:svg="http://www.w3.org/2000/svg"
   xmlns="http://www.w3.org/2000/svg"
   version="1.1"
   id="svg2"
   viewBox="0 0 110 35.000001"
   height="35"
   width="110">
  <defs
     id="defs4">
    <clipPath
       clipPathUnits="userSpaceOnUse"
       id="clipPath4169">
      <path
         d="m 0,77.414 200,0 L 200,0 0,0 0,77.414 Z"
         id="path4171" />
    </clipPath>
  </defs>
  <metadata
     id="metadata7">
    <rdf:RDF>
      <cc:Work
         rdf:about="">
        <dc:format>image/svg+xml</dc:format>
        <dc:type
           rdf:resource="http://purl.org/dc/dcmitype/StillImage" />
        <dc:title></dc:title>
      </cc:Work>
    </rdf:RDF>
  </metadata>
  <g
     id="layer1"
     transform="translate(0,-1017.3621)">
    <g
       id="text4408"
       style="font-style:normal;font-variant:normal;font-weight:normal;font-stretch:normal;font-size:22.15882874px;line-height:125%;font-family:'.SF NS Display Condensed';-inkscape-font-specification:'.SF NS Display Condensed, Normal';text-align:start;letter-spacing:0px;word-spacing:0px;writing-mode:lr-tb;text-anchor:start;fill:#ffffff;fill-opacity:1;stroke:none;stroke-width:1px;stroke-linecap:butt;stroke-linejoin:miter;stroke-opacity:1">
      <path
         id="path4734"
         style="font-style:normal;font-variant:normal;font-weight:100;font-stretch:normal;font-size:22.15882874px;line-height:125%;font-family:'.SF Compact Display';-inkscape-font-specification:'.SF Compact Display, Thin';text-align:start;writing-mode:lr-tb;text-anchor:start;fill:#ffffff;fill-opacity:1"
         d="m 38.781791,1042.2004 0.757382,0 0,-11.1768 -0.757382,0 0,11.1768 z m -0.335412,-14.1522 c 0,0.4003 0.313772,0.7141 0.714103,0.7141 0.41115,0 0.724922,-0.3138 0.724922,-0.7141 0,-0.4003 -0.313772,-0.7249 -0.724922,-0.7249 -0.400331,0 -0.714103,0.3246 -0.714103,0.7249 z" />
      <path
         id="path4736"
         style="font-style:normal;font-variant:normal;font-weight:100;font-stretch:normal;font-size:22.15882874px;line-height:125%;font-family:'.SF Compact Display';-inkscape-font-specification:'.SF Compact Display, Thin';text-align:start;writing-mode:lr-tb;text-anchor:start;fill:#ffffff;fill-opacity:1"
         d="m 43.347721,1042.2004 0.768202,0 0,-6.8056 c 0,-1.9584 1.200991,-3.8518 3.602973,-3.8518 2.034112,0 3.181004,1.4715 3.181004,3.4082 l 0,7.2492 0.757382,0 0,-7.3357 c 0,-2.5968 -1.633781,-4.0358 -3.851828,-4.0358 -2.131489,0 -3.289201,1.2443 -3.646252,2.3587 l -0.04328,0 0,-2.164 -0.768202,0 0,11.1768 z" />
      <path
         id="path4738"
         style="font-style:normal;font-variant:normal;font-weight:100;font-stretch:normal;font-size:22.15882874px;line-height:125%;font-family:'.SF Compact Display';-inkscape-font-specification:'.SF Compact Display, Thin';text-align:start;writing-mode:lr-tb;text-anchor:start;fill:#ffffff;fill-opacity:1"
         d="m 55.790424,1031.0236 -1.817716,0 0,0.6709 1.817716,0 0,8.0282 c 0,1.9043 0.616725,2.5859 2.618377,2.5859 0.540987,0 0.919678,-0.054 1.146893,-0.1082 l 0,-0.6383 c -0.259674,0.054 -0.638365,0.086 -1.017056,0.086 -1.417386,0 -1.990832,-0.3787 -1.990832,-1.7419 l 0,-8.2122 2.856412,0 0,-0.6709 -2.856412,0 0,-2.7049 -0.757382,0 0,2.7049 z" />
      <path
         id="path4740"
         style="font-style:normal;font-variant:normal;font-weight:100;font-stretch:normal;font-size:22.15882874px;line-height:125%;font-family:'.SF Compact Display';-inkscape-font-specification:'.SF Compact Display, Thin';text-align:start;writing-mode:lr-tb;text-anchor:start;fill:#ffffff;fill-opacity:1"
         d="m 62.087512,1042.2004 0.768202,0 0,-6.4702 c 0,-2.5318 1.081974,-4.1656 3.126905,-4.1656 0.42197,0 0.8223,0.076 0.941317,0.097 l 0,-0.7249 c -0.140656,-0.022 -0.40033,-0.087 -0.854759,-0.087 -2.034112,0 -2.845592,1.1902 -3.170184,2.3479 l -0.04328,0 0,-2.1748 -0.768202,0 0,11.1768 z" />
      <path
         id="path4742"
         style="font-style:normal;font-variant:normal;font-weight:100;font-stretch:normal;font-size:22.15882874px;line-height:125%;font-family:'.SF Compact Display';-inkscape-font-specification:'.SF Compact Display, Thin';text-align:start;writing-mode:lr-tb;text-anchor:start;fill:#ffffff;fill-opacity:1"
         d="m 75.644646,1040.3503 0.04328,0 0,1.8501 0.757382,0 0,-8.0282 c 0,-2.164 -1.503944,-3.3433 -3.76527,-3.3433 -2.369523,0 -3.570514,1.2334 -3.765269,2.9538 l 0.746562,0 c 0.248854,-1.3958 1.125253,-2.2505 2.975428,-2.2505 1.817717,0 3.051167,0.8764 3.051167,2.8023 l 0,1.6446 -3.494776,0 c -2.49936,0 -3.776089,1.2551 -3.776089,3.0944 0,2.0558 1.482304,3.3217 3.646252,3.3217 2.228867,0 3.33248,-1.3633 3.581334,-2.0449 z m -3.505596,1.3416 c -1.698699,0 -2.91051,-1.0062 -2.91051,-2.6292 0,-1.4066 0.919678,-2.402 2.975429,-2.402 l 3.483956,0 0,1.7853 c 0,1.9584 -1.633781,3.2459 -3.548875,3.2459 z" />
      <path
         id="path4744"
         style="font-style:normal;font-variant:normal;font-weight:bold;font-stretch:normal;font-size:22.15882874px;line-height:125%;font-family:'.SF NS Display Condensed';-inkscape-font-specification:'.SF NS Display Condensed, Bold';text-align:start;writing-mode:lr-tb;text-anchor:start;fill:#ffffff;fill-opacity:1"
         d="m 79.171883,1042.2004 2.856411,0 0,-7.0544 c 0,-1.4823 0.779022,-2.3912 2.034112,-2.3912 1.255089,0 1.860995,0.7574 1.860995,2.1748 l 0,7.2708 2.845592,0 0,-7.8443 c 0,-2.5102 -1.233451,-3.9816 -3.527236,-3.9816 -1.579682,0 -2.694115,0.7682 -3.245922,2.0557 l -0.06492,0 0,-1.8718 -2.759034,0 0,11.642 z" />
      <path
         id="path4746"
         style="font-style:normal;font-variant:normal;font-weight:bold;font-stretch:normal;font-size:22.15882874px;line-height:125%;font-family:'.SF NS Display Condensed';-inkscape-font-specification:'.SF NS Display Condensed, Bold';text-align:start;writing-mode:lr-tb;text-anchor:start;fill:#ffffff;fill-opacity:1"
         d="m 95.369036,1032.5276 c 1.26591,0 2.066571,0.9954 2.120669,2.6941 l -4.306256,0 c 0.09738,-1.6771 0.919678,-2.6941 2.185587,-2.6941 z m 2.131489,6.1348 c -0.238034,1.0387 -0.995416,1.5797 -2.023291,1.5797 -1.439026,0 -2.326245,-1.1145 -2.326245,-3.0187 l 0,-0.1732 7.065291,0 0,-0.9088 c 0,-3.6571 -1.850176,-5.7886 -4.879703,-5.7886 -3.094446,0 -4.977081,2.2613 -4.977081,6.0699 0,3.841 1.850176,5.9941 5.074459,5.9941 2.564278,0 4.360355,-1.4174 4.674125,-3.7544 l -2.607555,0 z" />
      <path
         id="path4748"
         style="font-style:normal;font-variant:normal;font-weight:bold;font-stretch:normal;font-size:22.15882874px;line-height:125%;font-family:'.SF NS Display Condensed';-inkscape-font-specification:'.SF NS Display Condensed, Bold';text-align:start;writing-mode:lr-tb;text-anchor:start;fill:#ffffff;fill-opacity:1"
         d="m 102.49924,1027.8967 0,2.6617 -1.49312,0 0,2.1856 1.49312,0 0,6.362 c 0,2.283 0.95214,3.1594 3.4515,3.1594 0.57345,0 1.08197,-0.054 1.38493,-0.1082 l 0,-2.1423 c -0.17312,0.022 -0.47607,0.043 -0.71411,0.043 -0.89803,0 -1.27673,-0.4219 -1.27673,-1.3741 l 0,-5.94 1.99084,0 0,-2.1856 -1.99084,0 0,-2.6617 -2.84559,0 z" />
    </g>
    <path
       style="color:#000000;font-style:normal;font-variant:normal;font-weight:normal;font-stretch:normal;font-size:medium;line-height:normal;font-family:sans-serif;text-indent:0;text-align:start;text-decoration:none;text-decoration-line:none;text-decoration-style:solid;text-decoration-color:#000000;letter-spacing:normal;word-spacing:normal;text-transform:none;direction:ltr;block-progression:tb;writing-mode:lr-tb;baseline-shift:baseline;text-anchor:start;white-space:normal;clip-rule:nonzero;display:inline;overflow:visible;visibility:visible;opacity:1;isolation:auto;mix-blend-mode:normal;color-interpolation:sRGB;color-interpolation-filters:linearRGB;solid-color:#000000;solid-opacity:1;fill:#ffffff;fill-opacity:1;fill-rule:evenodd;stroke:none;stroke-width:1.64558065;stroke-linecap:butt;stroke-linejoin:miter;stroke-miterlimit:4;stroke-dasharray:none;stroke-dashoffset:0;stroke-opacity:1;color-rendering:auto;image-rendering:auto;shape-rendering:auto;text-rendering:auto;enable-background:accumulate"
       d="m 18.18538,1028.8767 0.2175,-6.4106 -0.6087,-0.012 0.2638,6.4491 0.091,-0.026 z"
       id="path4418" />
    <path
       style="color:#000000;font-style:normal;font-variant:normal;font-weight:normal;font-stretch:normal;font-size:medium;line-height:normal;font-family:sans-serif;text-indent:0;text-align:start;text-decoration:none;text-decoration-line:none;text-decoration-style:solid;text-decoration-color:#000000;letter-spacing:normal;word-spacing:normal;text-transform:none;direction:ltr;block-progression:tb;writing-mode:lr-tb;baseline-shift:baseline;text-anchor:start;white-space:normal;clip-rule:nonzero;display:inline;overflow:visible;visibility:visible;opacity:1;isolation:auto;mix-blend-mode:normal;color-interpolation:sRGB;color-interpolation-filters:linearRGB;solid-color:#000000;solid-opacity:1;fill:#ffffff;fill-opacity:1;fill-rule:evenodd;stroke:none;stroke-width:1.64558065;stroke-linecap:butt;stroke-linejoin:miter;stroke-miterlimit:4;stroke-dasharray:none;stroke-dashoffset:0;stroke-opacity:1;color-rendering:auto;image-rendering:auto;shape-rendering:auto;text-rendering:auto;enable-background:accumulate"
       d="m 11.66998,1029.997 -0.1031,0.2761 6.4852,2.253 0.1472,-1.1453 z"
       id="path4420" />
    <path
       style="color:#000000;font-style:normal;font-variant:normal;font-weight:normal;font-stretch:normal;font-size:medium;line-height:normal;font-family:sans-serif;text-indent:0;text-align:start;text-decoration:none;text-decoration-line:none;text-decoration-style:solid;text-decoration-color:#000000;letter-spacing:normal;word-spacing:normal;text-transform:none;direction:ltr;block-progression:tb;writing-mode:lr-tb;baseline-shift:baseline;text-anchor:start;white-space:normal;clip-rule:nonzero;display:inline;overflow:visible;visibility:visible;opacity:1;isolation:auto;mix-blend-mode:normal;color-interpolation:sRGB;color-interpolation-filters:linearRGB;solid-color:#000000;solid-opacity:1;fill:#ffffff;fill-opacity:1;fill-rule:evenodd;stroke:none;stroke-width:1.64558065;stroke-linecap:butt;stroke-linejoin:miter;stroke-miterlimit:4;stroke-dasharray:none;stroke-dashoffset:0;stroke-opacity:1;color-rendering:auto;image-rendering:auto;shape-rendering:auto;text-rendering:auto;enable-background:accumulate"
       d="m 24.45538,1029.6508 -6.3664,1.5912 0.1175,1.1524 6.3884,-2.5402 z"
       id="path4422" />
    <path
       style="color:#000000;font-style:normal;font-variant:normal;font-weight:normal;font-stretch:normal;font-size:medium;line-height:normal;font-family:sans-serif;text-indent:0;text-align:start;text-decoration:none;text-decoration-line:none;text-decoration-style:solid;text-decoration-color:#000000;letter-spacing:normal;word-spacing:normal;text-transform:none;direction:ltr;block-progression:tb;writing-mode:lr-tb;baseline-shift:baseline;text-anchor:start;white-space:normal;clip-rule:nonzero;display:inline;overflow:visible;visibility:visible;opacity:1;isolation:auto;mix-blend-mode:normal;color-interpolation:sRGB;color-interpolation-filters:linearRGB;solid-color:#000000;solid-opacity:1;fill:#ffffff;fill-opacity:1;fill-rule:evenodd;stroke:none;stroke-width:1.64558065;stroke-linecap:butt;stroke-linejoin:miter;stroke-miterlimit:4;stroke-dasharray:none;stroke-dashoffset:0;stroke-opacity:1;color-rendering:auto;image-rendering:auto;shape-rendering:auto;text-rendering:auto;enable-background:accumulate"
       d="m 23.42108,1037.2271 -5.4917,4.3431 0.6114,0.848 5.0454,-5.0183 z"
       id="path4424" />
    <path
       style="color:#000000;font-style:normal;font-variant:normal;font-weight:normal;font-stretch:normal;font-size:medium;line-height:normal;font-family:sans-serif;text-indent:0;text-align:start;text-decoration:none;text-decoration-line:none;text-decoration-style:solid;text-decoration-color:#000000;letter-spacing:normal;word-spacing:normal;text-transform:none;direction:ltr;block-progression:tb;writing-mode:lr-tb;baseline-shift:baseline;text-anchor:start;white-space:normal;clip-rule:nonzero;display:inline;overflow:visible;visibility:visible;opacity:1;isolation:auto;mix-blend-mode:normal;color-interpolation:sRGB;color-interpolation-filters:linearRGB;solid-color:#000000;solid-opacity:1;fill:#ffffff;fill-opacity:1;fill-rule:evenodd;stroke:none;stroke-width:1.64558065;stroke-linecap:butt;stroke-linejoin:miter;stroke-miterlimit:4;stroke-dasharray:none;stroke-dashoffset:0;stroke-opacity:1;color-rendering:auto;image-rendering:auto;shape-rendering:auto;text-rendering:auto;enable-background:accumulate"
       d="m 24.58178,1029.7716 -1.3178,7.4837 0.6668,0.062 0.9111,-7.5376 z"
       id="path4426" />
    <path
       style="color:#000000;font-style:normal;font-variant:normal;font-weight:normal;font-stretch:normal;font-size:medium;line-height:normal;font-family:sans-serif;text-indent:0;text-align:start;text-decoration:none;text-decoration-line:none;text-decoration-style:solid;text-decoration-color:#000000;letter-spacing:normal;word-spacing:normal;text-transform:none;direction:ltr;block-progression:tb;writing-mode:lr-tb;baseline-shift:baseline;text-anchor:start;white-space:normal;clip-rule:nonzero;display:inline;overflow:visible;visibility:visible;opacity:1;isolation:auto;mix-blend-mode:normal;color-interpolation:sRGB;color-interpolation-filters:linearRGB;solid-color:#000000;solid-opacity:1;fill:#ffffff;fill-opacity:1;fill-rule:evenodd;stroke:none;stroke-width:1.64558065;stroke-linecap:butt;stroke-linejoin:miter;stroke-miterlimit:4;stroke-dasharray:none;stroke-dashoffset:0;stroke-opacity:1;color-rendering:auto;image-rendering:auto;shape-rendering:auto;text-rendering:auto;enable-background:accumulate"
       d="m 17.52428,1032.0005 0.3766,9.8336 0.3952,0.01 0.326,-9.8336 z"
       id="path4428" />
    <path
       style="color:#000000;font-style:normal;font-variant:normal;font-weight:normal;font-stretch:normal;font-size:medium;line-height:normal;font-family:sans-serif;text-indent:0;text-align:start;text-decoration:none;text-decoration-line:none;text-decoration-style:solid;text-decoration-color:#000000;letter-spacing:normal;word-spacing:normal;text-transform:none;direction:ltr;block-progression:tb;writing-mode:lr-tb;baseline-shift:baseline;text-anchor:start;white-space:normal;clip-rule:nonzero;display:inline;overflow:visible;visibility:visible;opacity:1;isolation:auto;mix-blend-mode:normal;color-interpolation:sRGB;color-interpolation-filters:linearRGB;solid-color:#000000;solid-opacity:1;fill:#ffffff;fill-opacity:1;fill-rule:evenodd;stroke:none;stroke-width:1.64558065;stroke-linecap:butt;stroke-linejoin:miter;stroke-miterlimit:4;stroke-dasharray:none;stroke-dashoffset:0;stroke-opacity:1;color-rendering:auto;image-rendering:auto;shape-rendering:auto;text-rendering:auto;enable-background:accumulate"
       d="m 12.81828,1037.5024 -0.072,0.288 5.0667,4.8732 0.5139,-1.0291 z"
       id="path4430" />
    <path
       style="color:#000000;font-style:normal;font-variant:normal;font-weight:normal;font-stretch:normal;font-size:medium;line-height:normal;font-family:sans-serif;text-indent:0;text-align:start;text-decoration:none;text-decoration-line:none;text-decoration-style:solid;text-decoration-color:#000000;letter-spacing:normal;word-spacing:normal;text-transform:none;direction:ltr;block-progression:tb;writing-mode:lr-tb;baseline-shift:baseline;text-anchor:start;white-space:normal;clip-rule:nonzero;display:inline;overflow:visible;visibility:visible;opacity:1;isolation:auto;mix-blend-mode:normal;color-interpolation:sRGB;color-interpolation-filters:linearRGB;solid-color:#000000;solid-opacity:1;fill:#ffffff;fill-opacity:1;fill-rule:evenodd;stroke:none;stroke-width:1.64558065;stroke-linecap:butt;stroke-linejoin:miter;stroke-miterlimit:4;stroke-dasharray:none;stroke-dashoffset:0;stroke-opacity:1;color-rendering:auto;image-rendering:auto;shape-rendering:auto;text-rendering:auto;enable-background:accumulate"
       d="m 18.10998,1028.741 -6.9031,1.0476 1.2335,7.7629 0.6939,-0.091 -1.5253,-7.118 6.5076,-1.4906 6.2463,1.0954 0.066,-0.4782 z"
       id="path4432" />
    <path
       style="color:#000000;font-style:normal;font-variant:normal;font-weight:normal;font-stretch:normal;font-size:medium;line-height:normal;font-family:sans-serif;text-indent:0;text-align:start;text-decoration:none;text-decoration-line:none;text-decoration-style:solid;text-decoration-color:#000000;letter-spacing:normal;word-spacing:normal;text-transform:none;direction:ltr;block-progression:tb;writing-mode:lr-tb;baseline-shift:baseline;text-anchor:start;white-space:normal;clip-rule:nonzero;display:inline;overflow:visible;visibility:visible;opacity:1;isolation:auto;mix-blend-mode:normal;color-interpolation:sRGB;color-interpolation-filters:linearRGB;solid-color:#000000;solid-opacity:1;fill:#ffffff;fill-opacity:1;fill-rule:evenodd;stroke:none;stroke-width:1.64558065;stroke-linecap:butt;stroke-linejoin:miter;stroke-miterlimit:4;stroke-dasharray:none;stroke-dashoffset:0;stroke-opacity:1;color-rendering:auto;image-rendering:auto;shape-rendering:auto;text-rendering:auto;enable-background:accumulate"
       d="m 12.89498,1037.4674 -6.9271998,2.1224 0.345,0.8613 6.6849998,-2.7165 z"
       id="path4434" />
    <path
       style="color:#000000;font-style:normal;font-variant:normal;font-weight:normal;font-stretch:normal;font-size:medium;line-height:normal;font-family:sans-serif;text-indent:0;text-align:start;text-decoration:none;text-decoration-line:none;text-decoration-style:solid;text-decoration-color:#000000;letter-spacing:normal;word-spacing:normal;text-transform:none;direction:ltr;block-progression:tb;writing-mode:lr-tb;baseline-shift:baseline;text-anchor:start;white-space:normal;clip-rule:nonzero;display:inline;overflow:visible;visibility:visible;opacity:1;isolation:auto;mix-blend-mode:normal;color-interpolation:sRGB;color-interpolation-filters:linearRGB;solid-color:#000000;solid-opacity:1;fill:#ffffff;fill-opacity:1;fill-rule:evenodd;stroke:none;stroke-width:1.64558065;stroke-linecap:butt;stroke-linejoin:miter;stroke-miterlimit:4;stroke-dasharray:none;stroke-dashoffset:0;stroke-opacity:1;color-rendering:auto;image-rendering:auto;shape-rendering:auto;text-rendering:auto;enable-background:accumulate"
       d="m 23.31748,1037.2934 -0.061,0.2129 6.7885,2.2486 0.2016,-0.869 z"
       id="path4436" />
    <path
       style="opacity:1;fill:#33b35a;fill-opacity:1;stroke:#ffffff;stroke-width:2.14299989;stroke-linecap:round;stroke-linejoin:round;stroke-miterlimit:4;stroke-dasharray:none;stroke-dashoffset:0;stroke-opacity:1"
       d="m 18.70558,1031.8541 a 0.60858485,0.61179026 54.020398 0 1 -0.5988,0.6243 0.60858485,0.61179026 54.020398 0 1 -0.6224,-0.5947 0.60858485,0.61179026 54.020398 0 1 0.5988,-0.6243 0.60858485,0.61179026 54.020398 0 1 0.6224,0.5947 z"
       id="circle4438" />
    <path
       style="opacity:1;fill:#33b35a;fill-opacity:1;stroke:#ffffff;stroke-width:1.59148848;stroke-linecap:round;stroke-linejoin:round;stroke-miterlimit:4;stroke-dasharray:none;stroke-dashoffset:0;stroke-opacity:1"
       d="m 11.90988,1030.0043 a 0.45204805,0.45442898 54.020398 0 1 -0.4448,0.4638 0.45204805,0.45442898 54.020398 0 1 -0.4622,-0.4418 0.45204805,0.45442898 54.020398 0 1 0.4447,-0.4637 0.45204805,0.45442898 54.020398 0 1 0.4623,0.4417 z"
       id="circle4440" />
    <path
       style="opacity:1;fill:#33b35a;fill-opacity:1;stroke:#ffffff;stroke-width:1.59148848;stroke-linecap:round;stroke-linejoin:round;stroke-miterlimit:4;stroke-dasharray:none;stroke-dashoffset:0;stroke-opacity:1"
       d="m 25.08238,1029.8783 a 0.45204805,0.45442898 54.020398 0 1 -0.4448,0.4638 0.45204805,0.45442898 54.020398 0 1 -0.4623,-0.4418 0.45204805,0.45442898 54.020398 0 1 0.4448,-0.4637 0.45204805,0.45442898 54.020398 0 1 0.4623,0.4417 z"
       id="circle4442" />
    <path
       style="opacity:1;fill:#33b35a;fill-opacity:1;stroke:#ffffff;stroke-width:1.27319074;stroke-linecap:round;stroke-linejoin:round;stroke-miterlimit:4;stroke-dasharray:none;stroke-dashoffset:0;stroke-opacity:1"
       d="m 23.89778,1037.4644 a 0.36163843,0.36354317 54.020398 0 1 -0.3558,0.371 0.36163843,0.36354317 54.020398 0 1 -0.3698,-0.3534 0.36163843,0.36354317 54.020398 0 1 0.3558,-0.3709 0.36163843,0.36354317 54.020398 0 1 0.3698,0.3533 z"
       id="circle4444" />
    <path
       style="opacity:1;fill:#33b35a;fill-opacity:1;stroke:#ffffff;stroke-width:1.27319074;stroke-linecap:round;stroke-linejoin:round;stroke-miterlimit:4;stroke-dasharray:none;stroke-dashoffset:0;stroke-opacity:1"
       d="m 13.08498,1037.7222 a 0.36163843,0.36354317 54.020398 0 1 -0.3558,0.371 0.36163843,0.36354317 54.020398 0 1 -0.3698,-0.3534 0.36163843,0.36354317 54.020398 0 1 0.3557,-0.371 0.36163843,0.36354317 54.020398 0 1 0.3699,0.3534 z"
       id="circle4446" />
    <path
       style="opacity:1;fill:#33b35a;fill-opacity:1;stroke:#ffffff;stroke-width:1.90978611;stroke-linecap:round;stroke-linejoin:round;stroke-miterlimit:4;stroke-dasharray:none;stroke-dashoffset:0;stroke-opacity:1"
       d="m 18.68308,1042.0294 a 0.54245764,0.54531476 54.020398 0 1 -0.5338,0.5565 0.54245764,0.54531476 54.020398 0 1 -0.5547,-0.53 0.54245764,0.54531476 54.020398 0 1 0.5337,-0.5565 0.54245764,0.54531476 54.020398 0 1 0.5548,0.53 z"
       id="circle4448" />
    <path
       style="opacity:1;fill:#33b35a;fill-opacity:1;stroke:#ffffff;stroke-width:1.84612668;stroke-linecap:round;stroke-linejoin:round;stroke-miterlimit:4;stroke-dasharray:none;stroke-dashoffset:0;stroke-opacity:1"
       d="m 30.60018,1039.3044 a 0.52437573,0.52713761 54.020398 0 1 -0.5159,0.538 0.52437573,0.52713761 54.020398 0 1 -0.5363,-0.5124 0.52437573,0.52713761 54.020398 0 1 0.5159,-0.538 0.52437573,0.52713761 54.020398 0 1 0.5363,0.5124 z"
       id="circle4452" />
    <path
       style="opacity:1;fill:#33b35a;fill-opacity:1;stroke:#ffffff;stroke-width:1.84612668;stroke-linecap:round;stroke-linejoin:round;stroke-miterlimit:4;stroke-dasharray:none;stroke-dashoffset:0;stroke-opacity:1"
       d="m 6.7380802,1040.0015 a 0.52437573,0.52713761 54.020398 0 1 -0.516,0.538 0.52437573,0.52713761 54.020398 0 1 -0.5362,-0.5124 0.52437573,0.52713761 54.020398 0 1 0.5159,-0.538 0.52437573,0.52713761 54.020398 0 1 0.5363,0.5124 z"
       id="circle4454" />
    <path
       style="opacity:1;fill:#33b35a;fill-opacity:1;stroke:#ffffff;stroke-width:1.27319074;stroke-linecap:round;stroke-linejoin:round;stroke-miterlimit:4;stroke-dasharray:none;stroke-dashoffset:0;stroke-opacity:1"
       d="m 18.46058,1022.2594 a 0.36163843,0.36354317 54.020398 0 1 -0.3558,0.371 0.36163843,0.36354317 54.020398 0 1 -0.3698,-0.3534 0.36163843,0.36354317 54.020398 0 1 0.3558,-0.371 0.36163843,0.36354317 54.020398 0 1 0.3698,0.3534 z"
       id="circle4456" />
    <ellipse
       ry="15.818441"
       rx="15.818439"
       cy="1034.6444"
       cx="18.342447"
       id="ellipse4458"
       style="opacity:1;fill:none;fill-opacity:1;stroke:#ffffff;stroke-width:0.6830734;stroke-linecap:butt;stroke-linejoin:miter;stroke-miterlimit:4;stroke-dasharray:none;stroke-dashoffset:0;stroke-opacity:1" />
    <path
       style="opacity:1;fill:#33b35a;fill-opacity:1;stroke:#ffffff;stroke-width:0.95489305;stroke-linecap:round;stroke-linejoin:round;stroke-miterlimit:4;stroke-dasharray:none;stroke-dashoffset:0;stroke-opacity:1"
       d="m 18.37958,1028.8093 a 0.27122882,0.27265738 54.020398 0 1 -0.2669,0.2783 0.27122882,0.27265738 54.020398 0 1 -0.2774,-0.2651 0.27122882,0.27265738 54.020398 0 1 0.2669,-0.2782 0.27122882,0.27265738 54.020398 0 1 0.2774,0.265 z"
       id="circle4482" />
  </g>
</svg>
