<?xml version="1.0" encoding="UTF-8" standalone="no"?>
<svg
   xmlns:dc="http://purl.org/dc/elements/1.1/"
   xmlns:cc="http://creativecommons.org/ns#"
   xmlns:rdf="http://www.w3.org/1999/02/22-rdf-syntax-ns#"
   xmlns:svg="http://www.w3.org/2000/svg"
   xmlns="http://www.w3.org/2000/svg"
   version="1.1"
   id="svg2"
   viewBox="0 0 250 90.000001"
   height="90"
   width="250">
  <defs
     id="defs4">
    <clipPath
       clipPathUnits="userSpaceOnUse"
       id="clipPath4169">
      <path
         d="m 0,77.414 200,0 L 200,0 0,0 0,77.414 Z"
         id="path4171" />
    </clipPath>
  </defs>
  <metadata
     id="metadata7">
    <rdf:RDF>
      <cc:Work
         rdf:about="">
        <dc:format>image/svg+xml</dc:format>
        <dc:type
           rdf:resource="http://purl.org/dc/dcmitype/StillImage" />
        <dc:title></dc:title>
      </cc:Work>
    </rdf:RDF>
  </metadata>
  <g
     transform="translate(0,-962.36216)"
     id="layer1">
    <g
       style="fill:#ffffff"
       id="g4163"
       transform="matrix(1.25,0,0,-1.25,0.5710574,1055.7457)">
      <g
         style="fill:#ffffff"
         id="g4165">
        <g
           style="fill:#ffffff"
           id="g4167"
           clip-path="url(#clipPath4169)">
          <g
             style="fill:#ffffff"
             id="g4173"
             transform="translate(165.5713,41.2051)">
            <path
               d="m 0,0 c 0.359,0.303 0.727,0.605 1.102,0.905 3.479,2.809 7.577,5.538 11.631,7.938 8.145,4.806 16.129,8.284 18.678,8.375 l 0,6.682 C 27.2,22.583 23.352,21.232 19.631,19.612 17.188,18.545 14.889,17.465 12.733,16.377 8.278,14.142 4.417,11.872 1.102,9.612 c -14.384,-9.779 -18.66,-19.389 -17.497,-25.819 1.322,-7.277 8.521,-10.156 17.497,-8.652 3.671,0.609 7.639,1.963 11.631,4.048 6.618,3.467 13.278,8.951 18.678,16.465 l 0,14.575 -11.298,-6.382 1.037,-4.775 7.271,3.135 C 26.62,-2.989 19.848,-8.643 12.733,-12.609 8.683,-14.86 4.522,-16.57 1.102,-17.334 -1.319,-17.877 -3.363,-17.941 -4.749,-17.396 -12.128,-14.496 -8.003,-6.759 0,0"
               style="fill:#ffffff;fill-opacity:1;fill-rule:nonzero;stroke:none"
               id="path4175" />
          </g>
          <g
             style="fill:#ffffff"
             id="g4177"
             transform="translate(166.6729,63.1514)">
            <path
               d="m 0,0 c 3.517,1.883 7.392,3.729 11.632,5.517 1.911,0.804 3.892,1.602 5.96,2.38 l -5.96,0 -11.632,0 -35.418,0 0,-64.683 24.32,0 C -33.665,-51.204 -42.455,-22.724 0,0"
               style="fill:#ffffff;fill-opacity:1;fill-rule:nonzero;stroke:none"
               id="path4179" />
          </g>
          <g
             style="fill:#ffffff"
             id="g4181"
             transform="translate(172.3428,6.3652)">
            <path
               d="m 0,0 5.962,0 18.678,0 0,14.186 C 18.569,8.221 12.193,4.205 5.962,1.813 3.954,1.047 1.967,0.441 0,0"
               style="fill:#ffffff;fill-opacity:1;fill-rule:nonzero;stroke:none"
               id="path4183" />
          </g>
          <g
             style="fill:#ffffff"
             id="g4185"
             transform="translate(67.3701,66.6729)">
            <path
               d="m 0,0 0,-2.387 -0.006,0.019 -2.378,-4.778 2.384,0 0,-1.104 -2.972,0 -2.806,-5.448 -1.113,0.321 L 0,0 Z M 0,2.942 0,1.591 -0.393,1.07 -1.147,1.07 0,2.942 Z m -7.219,-16.273 c -0.438,-0.18 -0.864,-0.317 -1.293,-0.401 -0.42,-0.085 -0.859,-0.131 -1.298,-0.131 -0.824,0 -1.596,0.122 -2.317,0.364 -0.726,0.246 -1.379,0.602 -1.978,1.072 -0.832,0.656 -1.484,1.473 -1.964,2.448 -0.472,0.975 -0.71,1.99 -0.71,3.039 0,1.059 0.238,2.075 0.71,3.046 0.48,0.973 1.132,1.79 1.964,2.436 0.616,0.477 1.28,0.831 2.004,1.076 0.71,0.239 1.482,0.357 2.309,0.357 0.436,0 0.85,-0.04 1.263,-0.118 0.41,-0.075 0.827,-0.197 1.251,-0.355 l 0.254,-1.464 c -0.41,0.272 -0.85,0.474 -1.311,0.608 -0.468,0.137 -0.963,0.204 -1.495,0.204 -1.613,0 -2.979,-0.552 -4.087,-1.657 -1.112,-1.105 -1.667,-2.484 -1.667,-4.133 0,-1.644 0.555,-3.027 1.661,-4.133 1.105,-1.109 2.463,-1.661 4.076,-1.661 0.472,0 0.934,0.063 1.391,0.191 0.462,0.129 0.944,0.332 1.454,0.601 l -0.217,-1.389 z M 0,1.591 0,2.942 0.884,4.373 2.14,4.373 0,1.591 Z m 6.598,-14.052 0,-0.441 L 0.046,0.087 0,0 0,-2.387 2.395,-7.146 0,-7.146 0,-8.25 l 2.933,0 2.747,-5.448 0.918,0.278 0,-0.218 -0.23,0.05 0.23,1.127 z m 13.99,0.128 0,-0.559 -0.249,-0.485 0.249,-0.072 0,-0.195 -0.889,-0.197 -1.976,10.057 -4.118,-10.057 -4.116,10.057 -1.973,-10.057 -0.918,0.203 0,0.218 0.221,0.067 -0.221,0.451 0,0.441 2.525,12.589 4.482,-11.043 4.503,11.043 2.48,-12.461 z M 27.238,0 l 0,-2.387 -0.014,0.019 -2.376,-4.778 2.39,0 0,-1.104 -2.982,0 -2.797,-5.448 -0.871,0.249 0,-0.195 0.251,0.056 -0.251,1.255 0,-0.559 L 27.238,0 Z m 0,-8.25 0,1.104 2.386,0 -2.386,4.759 0,2.387 0.045,0.087 6.773,-13.44 -1.145,-0.345 -2.752,5.448 -2.921,0 z m 14.581,-4.618 0,-0.163 -0.181,-0.346 0.181,-0.051 0,0.229 -0.888,-0.56 -5.103,6.687 0.927,-0.022 c 0.961,0 1.716,0.25 2.254,0.749 0.541,0.497 0.804,1.192 0.804,2.076 0,0.885 -0.263,1.579 -0.804,2.083 -0.538,0.496 -1.293,0.742 -2.254,0.742 l -0.927,0 0,-12.125 -1.162,-0.237 0,13.489 2.181,0 c 1.28,0 2.303,-0.357 3.073,-1.071 0.766,-0.709 1.152,-1.658 1.152,-2.837 0,-1.01 -0.29,-1.856 -0.866,-2.544 -0.566,-0.685 -1.336,-1.102 -2.291,-1.245 l 3.904,-4.854 z M 48.535,0 l 0,-2.387 -0.012,0.019 -2.38,-4.778 2.392,0 0,-1.104 -2.977,0 -2.805,-5.448 -0.934,0.27 0,0.229 0.178,0.113 -0.178,0.218 0,-0.163 L 48.535,0 Z m 0,-8.25 0,1.104 2.39,0 -2.39,4.759 0,2.387 0.041,0.087 6.774,-13.44 -1.139,-0.345 -2.746,5.448 -2.93,0 z"
               style="fill:#ffffff;fill-opacity:1;fill-rule:nonzero;stroke:none"
               id="path4187" />
          </g>
          <g
             style="fill:#ffffff"
             id="g4189"
             transform="translate(11.6284,42.083)">
            <path
               d="m 0,0 0,-11.076 1.585,0 c 0.799,0 1.534,0.098 2.188,0.288 l 0,-1.115 c -0.72,-0.174 -1.51,-0.261 -2.364,-0.261 l -2.575,0 0,13.251 1.744,0 c 1.375,0 2.443,-0.076 3.195,-0.231 l 0,-1.145 C 3.119,-0.097 2.384,0 1.585,0 L 0,0 Z m 33.518,-11.931 c -0.435,-0.176 -0.86,-0.314 -1.289,-0.396 -0.426,-0.086 -0.857,-0.133 -1.302,-0.133 -0.821,0 -1.593,0.126 -2.313,0.366 -0.728,0.242 -1.384,0.601 -1.983,1.071 -0.831,0.655 -1.482,1.469 -1.959,2.444 -0.474,0.981 -0.714,1.993 -0.714,3.041 0,1.059 0.24,2.078 0.714,3.049 0.477,0.973 1.128,1.786 1.959,2.43 0.619,0.48 1.283,0.84 2.004,1.082 0.719,0.239 1.493,0.356 2.313,0.356 0.431,0 0.848,-0.038 1.261,-0.117 0.412,-0.079 0.832,-0.199 1.253,-0.357 l 0.253,-1.465 c -0.406,0.273 -0.845,0.474 -1.314,0.609 -0.467,0.137 -0.96,0.205 -1.491,0.205 -1.611,0 -2.983,-0.55 -4.088,-1.66 -1.108,-1.105 -1.662,-2.479 -1.662,-4.132 0,-1.643 0.55,-3.026 1.656,-4.132 1.106,-1.106 2.463,-1.661 4.075,-1.661 0.478,0 0.936,0.063 1.391,0.191 0.456,0.129 0.945,0.33 1.447,0.6 l -0.211,-1.391 z m -23.07,-0.233 0,13.251 7.089,0 0.276,-1.108 -6.206,0 0,-4.834 5.263,0 0,-1.085 -5.263,0 0,-5.101 6.48,0 -0.253,-1.123 -7.386,0 z m 31.411,13.543 0,-1.105 C 40.26,0.271 38.902,-0.287 37.797,-1.396 36.679,-2.511 36.12,-3.894 36.12,-5.532 c 0,-1.646 0.559,-3.019 1.665,-4.131 1.109,-1.113 2.469,-1.668 4.07,-1.668 l 0.004,0 0,-1.125 c -0.923,0 -1.79,0.156 -2.594,0.469 -0.813,0.319 -1.528,0.782 -2.169,1.388 -0.68,0.654 -1.225,1.429 -1.605,2.319 -0.378,0.896 -0.564,1.804 -0.564,2.742 0,0.948 0.186,1.861 0.564,2.746 0.38,0.887 0.925,1.657 1.605,2.313 0.641,0.607 1.356,1.068 2.169,1.387 0.804,0.312 1.671,0.47 2.594,0.471 M 3.773,-10.788 c 0.843,0.248 1.568,0.653 2.169,1.216 1.071,1.006 1.612,2.35 1.612,4.034 0,1.689 -0.541,3.036 -1.616,4.035 -0.604,0.565 -1.322,0.968 -2.165,1.214 l 0,1.145 C 3.829,0.844 3.886,0.829 3.939,0.815 4.697,0.639 5.391,0.343 6.013,-0.073 6.906,-0.66 7.577,-1.423 8.046,-2.356 8.521,-3.293 8.754,-4.35 8.754,-5.538 c 0,-2.022 -0.66,-3.634 -1.974,-4.83 -0.821,-0.744 -1.817,-1.255 -3.007,-1.535 l 0,1.115 z m 89.463,-1.546 0,13.421 1.196,0.168 0,-13.419 -1.196,-0.17 z m -2.05,0.403 c -0.435,-0.176 -0.864,-0.314 -1.289,-0.396 -0.424,-0.086 -0.855,-0.133 -1.298,-0.133 -0.824,0 -1.599,0.126 -2.318,0.366 -0.721,0.242 -1.379,0.601 -1.98,1.071 -0.834,0.655 -1.48,1.469 -1.958,2.444 -0.475,0.981 -0.717,1.993 -0.717,3.041 0,1.059 0.242,2.078 0.717,3.049 0.478,0.973 1.124,1.786 1.958,2.43 0.616,0.48 1.284,0.84 2,1.082 0.72,0.239 1.491,0.356 2.316,0.356 0.427,0 0.848,-0.038 1.262,-0.117 0.414,-0.079 0.828,-0.199 1.252,-0.357 l 0.253,-1.465 c -0.411,0.273 -0.847,0.474 -1.31,0.609 -0.468,0.137 -0.963,0.205 -1.494,0.205 -1.618,0 -2.984,-0.55 -4.088,-1.66 -1.109,-1.105 -1.665,-2.479 -1.665,-4.132 0,-1.643 0.552,-3.026 1.658,-4.132 1.107,-1.106 2.467,-1.661 4.073,-1.661 0.478,0 0.934,0.063 1.394,0.191 0.456,0.129 0.941,0.33 1.45,0.6 l -0.216,-1.391 z m -17.248,-0.471 0,13.489 2.18,0 c 1.284,0 2.306,-0.353 3.071,-1.063 0.772,-0.72 1.155,-1.666 1.155,-2.848 0,-1.009 -0.29,-1.854 -0.863,-2.538 -0.57,-0.691 -1.335,-1.105 -2.295,-1.25 l 4.082,-5.074 -1.068,-0.665 -5.096,6.684 0.924,-0.02 c 0.964,0 1.713,0.249 2.253,0.745 0.537,0.5 0.805,1.191 0.805,2.078 0,0.889 -0.268,1.581 -0.805,2.079 -0.54,0.498 -1.289,0.742 -2.253,0.742 l -0.924,0 0,-12.121 -1.166,-0.238 z m -8.91,0.238 0,13.251 7.09,0 0.275,-1.108 -6.203,0 0,-4.834 5.258,0 0,-1.085 -5.258,0 0,-5.101 6.474,0 -0.253,-1.123 -7.383,0 z m -15.652,-0.021 2.745,13.714 4.49,-11.038 4.502,11.038 2.729,-13.714 -1.14,-0.253 -1.974,10.055 -4.117,-10.055 -4.117,10.055 -1.979,-10.055 -1.139,0.253 z m -7.517,-0.271 0,1.125 c 1.598,0 2.953,0.559 4.069,1.668 1.114,1.119 1.672,2.493 1.672,4.131 0,1.638 -0.555,3.021 -1.664,4.136 -1.103,1.11 -2.456,1.67 -4.061,1.67 l -0.016,0 0,1.105 0.016,0 c 0.92,0 1.776,-0.153 2.581,-0.463 0.799,-0.315 1.523,-0.784 2.169,-1.395 0.709,-0.656 1.243,-1.419 1.616,-2.286 0.371,-0.862 0.56,-1.788 0.56,-2.773 0,-0.938 -0.199,-1.862 -0.575,-2.753 -0.388,-0.896 -0.917,-1.666 -1.601,-2.308 -0.634,-0.606 -1.353,-1.069 -2.157,-1.388 -0.802,-0.313 -1.666,-0.473 -2.593,-0.473 l -0.016,0.004 z m 61.267,13.835 0,-1.105 c -1.601,-0.003 -2.956,-0.561 -4.063,-1.67 -1.117,-1.115 -1.672,-2.498 -1.672,-4.136 0,-1.646 0.552,-3.019 1.665,-4.131 1.105,-1.113 2.458,-1.668 4.07,-1.668 l 0,-1.125 c -0.922,0 -1.789,0.156 -2.596,0.469 -0.807,0.319 -1.537,0.782 -2.166,1.388 -0.686,0.654 -1.224,1.429 -1.598,2.319 -0.384,0.896 -0.578,1.804 -0.578,2.742 0,0.948 0.194,1.861 0.578,2.746 0.374,0.887 0.912,1.657 1.598,2.313 0.629,0.607 1.359,1.068 2.166,1.387 0.807,0.312 1.674,0.47 2.596,0.471 m 0,-13.835 0,1.125 c 1.602,0 2.959,0.559 4.065,1.668 1.112,1.119 1.677,2.493 1.677,4.131 0,1.638 -0.557,3.021 -1.661,4.136 -1.112,1.11 -2.464,1.67 -4.064,1.67 l -0.017,0 0,1.105 0.017,0 c 0.922,0 1.774,-0.153 2.58,-0.463 0.797,-0.315 1.524,-0.784 2.171,-1.395 0.709,-0.656 1.24,-1.419 1.616,-2.286 0.37,-0.862 0.555,-1.788 0.555,-2.773 0,-0.938 -0.196,-1.862 -0.576,-2.753 -0.377,-0.896 -0.912,-1.666 -1.595,-2.308 -0.639,-0.606 -1.352,-1.069 -2.159,-1.388 -0.802,-0.313 -1.663,-0.473 -2.592,-0.473 l -0.017,0.004 z"
               style="fill:#ffffff;fill-opacity:1;fill-rule:nonzero;stroke:none"
               id="path4191" />
          </g>
          <g
             style="fill:#ffffff"
             id="g4193"
             transform="translate(4.1768,18.8945)">
            <path
               d="m 0,0 0,-11.072 1.587,0 c 0.808,0 1.535,0.097 2.195,0.287 l 0,-1.119 C 3.058,-12.07 2.267,-12.16 1.411,-12.16 l -2.57,0 0,13.248 1.734,0 c 1.381,0 2.446,-0.076 3.207,-0.227 l 0,-1.148 C 3.122,-0.092 2.395,0 1.587,0 L 0,0 Z m 24.606,-12.16 0,13.248 1.179,0.137 0,-12.225 4.702,0 -0.408,-1.16 -5.473,0 z m -14.155,0 0,13.248 7.089,0 0.274,-1.104 -6.208,0 0,-4.836 5.267,0 0,-1.086 -5.267,0 0,-5.095 6.485,0 -0.255,-1.127 -7.385,0 z m 27.353,13.566 0,-2.39 -0.014,0.027 -2.377,-4.777 2.391,0 0,-1.112 -2.976,0 -2.807,-5.445 -1.116,0.322 6.899,13.375 z M 3.782,-10.785 c 0.842,0.244 1.56,0.65 2.166,1.219 1.073,1.005 1.611,2.345 1.611,4.035 0,1.687 -0.538,3.031 -1.616,4.029 -0.601,0.566 -1.326,0.969 -2.161,1.215 l 0,1.148 C 3.835,0.848 3.889,0.836 3.941,0.82 4.704,0.637 5.392,0.344 6.018,-0.074 6.91,-0.658 7.587,-1.422 8.056,-2.354 8.522,-3.289 8.755,-4.34 8.755,-5.531 c 0,-2.024 -0.654,-3.637 -1.967,-4.836 -0.821,-0.74 -1.823,-1.254 -3.006,-1.537 l 0,1.119 z m 59.757,11.873 1.2,0.172 0,-8.547 c 0,-1.467 0.261,-2.502 0.778,-3.092 0.525,-0.596 1.4,-0.894 2.623,-0.894 1.219,0 2.1,0.298 2.625,0.892 0.519,0.588 0.782,1.617 0.782,3.094 l 0,8.375 1.219,0.172 0,-8.565 c 0,-1.049 -0.078,-1.84 -0.234,-2.377 -0.152,-0.535 -0.407,-1 -0.779,-1.39 -0.382,-0.432 -0.893,-0.762 -1.527,-1.002 -0.635,-0.242 -1.328,-0.362 -2.086,-0.362 -0.751,0 -1.443,0.12 -2.083,0.362 -0.644,0.24 -1.152,0.57 -1.534,1.002 -0.355,0.381 -0.604,0.836 -0.754,1.371 -0.157,0.527 -0.23,1.328 -0.23,2.396 l 0,8.393 z m -2,-6.051 0,-5.637 c -0.637,-0.601 -1.352,-1.066 -2.157,-1.38 -0.807,-0.313 -1.672,-0.471 -2.596,-0.471 -0.931,0 -1.807,0.158 -2.612,0.471 -0.81,0.314 -1.531,0.779 -2.167,1.38 -0.677,0.653 -1.214,1.418 -1.596,2.311 -0.383,0.893 -0.578,1.818 -0.578,2.76 0,0.83 0.154,1.642 0.459,2.429 0.297,0.787 0.73,1.51 1.287,2.155 0.649,0.761 1.423,1.332 2.306,1.734 0.89,0.391 1.856,0.592 2.901,0.592 0.868,0 1.689,-0.133 2.455,-0.422 0.76,-0.277 1.459,-0.699 2.089,-1.25 l -0.755,-0.863 c -0.559,0.472 -1.163,0.832 -1.792,1.074 -0.638,0.236 -1.303,0.353 -1.997,0.353 -1.612,0 -2.974,-0.556 -4.084,-1.668 -1.113,-1.117 -1.668,-2.492 -1.668,-4.134 0,-1.647 0.555,-3.02 1.66,-4.131 1.111,-1.113 2.468,-1.666 4.078,-1.666 0.649,0 1.286,0.103 1.893,0.312 0.607,0.215 1.175,0.526 1.719,0.942 l 0,3.978 -4.454,0 0.432,1.131 5.177,0 z m -23.735,-1.883 0,1.112 2.386,0 -2.386,4.75 0,2.39 0.039,0.09 6.777,-13.437 -1.141,-0.35 -2.751,5.445 -2.924,0 z m 42.396,8.252 0,-2.39 -0.006,0.027 -2.382,-4.777 2.388,0 0,-1.112 -2.977,0 -2.806,-5.445 -1.113,0.322 6.896,13.375 z m 6.416,-12.238 0,-0.314 -6.374,12.642 -0.042,-0.09 0,-2.39 2.389,-4.75 -2.389,0 0,-1.112 2.923,0 2.753,-5.445 0.74,0.225 0,0.197 c -0.134,0.084 -0.268,0.168 -0.4,0.267 l 0.4,0.77 z m 7.724,-1.502 0,13.422 1.199,0.172 0,-13.42 -1.199,-0.174 z m -7.724,0.268 0,0.197 c 0.256,-0.145 0.515,-0.268 0.775,-0.358 0.405,-0.138 0.84,-0.209 1.298,-0.209 1.054,0 1.868,0.313 2.435,0.94 0.572,0.621 0.859,1.502 0.859,2.639 l 0,10.117 -1.18,-0.172 0,-9.072 c 0,-1.243 -0.154,-2.088 -0.466,-2.549 -0.314,-0.457 -0.837,-0.68 -1.581,-0.68 -0.37,0 -0.724,0.067 -1.062,0.188 -0.326,0.123 -0.625,0.308 -0.889,0.548 l -0.189,-0.355 0,-0.314 0.404,-0.795 -0.404,-0.125 z m 18.397,0.607 0,-0.162 -0.182,-0.348 0.182,-0.052 0,0.23 -0.889,-0.557 -5.103,6.684 0.927,-0.018 c 0.961,0 1.716,0.25 2.254,0.744 0.541,0.497 0.805,1.194 0.805,2.081 0,0.882 -0.264,1.578 -0.805,2.078 -0.538,0.492 -1.293,0.74 -2.254,0.74 l -0.927,0 0,-12.121 -1.162,-0.236 0,13.484 2.181,0 c 1.28,0 2.304,-0.354 3.073,-1.067 0.766,-0.714 1.153,-1.662 1.153,-2.841 0,-1.008 -0.29,-1.86 -0.867,-2.539 -0.566,-0.686 -1.336,-1.106 -2.291,-1.25 l 3.905,-4.85 z m 6.716,12.865 0,-2.39 -0.012,0.027 -2.381,-4.777 2.393,0 0,-1.112 -2.978,0 -2.805,-5.445 -0.933,0.27 0,0.23 0.177,0.111 -0.177,0.221 0,-0.162 6.716,13.027 z m 0,-8.252 0,1.112 2.389,0 -2.389,4.75 0,2.39 0.041,0.09 6.773,-13.437 -1.139,-0.35 -2.746,5.445 -2.929,0 z"
               style="fill:#ffffff;fill-opacity:1;fill-rule:nonzero;stroke:none"
               id="path4195" />
          </g>
        </g>
      </g>
    </g>
  </g>
</svg>
